- 
http://www.Speed.Cd
 
http://www.Speed.Cd       the fast  and The Hottest Private Tracker on the net

Please Seed back to make the speed Faster!!
 ............ NFO .............
-[IMG]http://i.imgur.com/3Gbf1lx.jpg[/IMG]

Source: ONLiNE
 
http://www.imdb.com/title/tt1764647/

A radio talk show host unravels a conspiracy about encounters with mysterious beings known as The Shadow People and their role in the unexplained deaths of several hundred victims in the 1980s.

General
Complete name                            : Shadow People 2012 WEBRip x264 AAC-OFFLiNE.mp4
Format                                   : MPEG-4
Format profile                           : Base Media
Codec ID                                 : isom
File size                                : 699 MiB
Duration                                 : 1h 28mn
Overall bit rate mode                    : Variable
Overall bit rate                         : 1 100 Kbps
Encoded date                             : UTC 2013-03-06 15:44:42
Tagged date                              : UTC 2013-03-06 15:44:42

Video
ID                                       : 1
Format                                   : AVC
Format/Info                              : Advanced Video Codec
Format profile                           : High@L4.1
Format settings, CABAC                   : Yes
Format settings, ReFrames                : 3 frames
Codec ID                                 : avc1
Codec ID/Info                            : Advanced Video Coding
Duration                                 : 1h 28mn
Bit rate mode                            : Variable
Bit rate                                 : 794 Kbps
Maximum bit rate                         : 40.0 Mbps
Width                                    : 720 pixels
Height                                   : 304 pixels
Display aspect ratio                     : 2.35:1
Frame rate mode                          : Constant
Frame rate                               : 23.976 fps
Color space                              : YUV
Chroma subsampling                       : 4:2:0
Bit depth                                : 8 bits
Scan type                                : Progressive
Bits/(Pixel*Frame)                       : 0.151
Stream size                              : 505 MiB (72%)
Writing library                          : x264 core 130 r2273 b3065e6

Audio
ID                                       : 2
Format                                   : AAC
Format/Info                              : Advanced Audio Codec
Format profile                           : LC
Codec ID                                 : 40
Duration                                 : 1h 28mn
Bit rate mode                            : Variable
Bit rate                                 : 302 Kbps
Maximum bit rate                         : 380 Kbps
Channel(s)                               : 6 channels
Channel positions                        : Front: L C R, Side: L R, LFE
Sampling rate                            : 48.0 KHz
Compression mode                         : Lossy
Stream size                              : 192 MiB (27%)
Language                                 : English
Encoded date                             : UTC 2013-03-06 10:55:32
Tagged date                              : UTC 2013-03-06 15:45:14

[IMG]http://i.imgur.com/DvWi2jk.png[/IMG]
[IMG]http://i.imgur.com/krCCQ88.png[/IMG]
[IMG]http://i.imgur.com/vifEQlv.png[/IMG]
[IMG]http://i.imgur.com/08ONoOB.png[/IMG]
[IMG]http://i.imgur.com/RZKnyNC.png[/IMG]

Greets: To Our Friends